<svg xmlns="http://www.w3.org/2000/svg" xmlns:xlink="http://www.w3.org/1999/xlink" width="278.995" height="95.458" viewBox="0 0 278.995 95.458">
  <defs>
    <clipPath id="clip-path">
      <rect id="Rectangle_99" data-name="Rectangle 99" width="104.548" height="95.028"/>
    </clipPath>
  </defs>
  <g id="tekno-logo2" transform="translate(-21.942 -85.71)">
    <g id="Group_92" data-name="Group 92" transform="translate(64.731 126.324)">
      <path id="Path_303" data-name="Path 303" d="M13.338-.608q0,.76-3.762.76T5.814-.608V-19.684H1.254q-.646,0-.912-1.748a12.643,12.643,0,0,1-.114-1.71,12.644,12.644,0,0,1,.114-1.71Q.608-26.6,1.254-26.6h16.53q.646,0,.912,1.748a12.644,12.644,0,0,1,.114,1.71,12.643,12.643,0,0,1-.114,1.71q-.266,1.748-.912,1.748H13.338Z" transform="translate(0 35)"/>
      <path id="Path_302" data-name="Path 302" d="M13.875-15.614q.7,0,.7,2.59a11.962,11.962,0,0,1-.167,1.832q-.167,1.055-.611,1.054H9.1v3.7H15.91q.629,0,.851,1.628a9.613,9.613,0,0,1,.111,1.5,12.325,12.325,0,0,1-.222,2.054Q16.428,0,15.91,0H3.256Q1.85,0,1.85-1.147V-24.938q0-.962.851-.962H15.947q.777,0,.777,3.274t-.777,3.275H9.1v3.737Z" transform="translate(18.839 34)"/>
      <path id="Path_301" data-name="Path 301" d="M9.25-.518q0,.555-3.478.555L3.7-.074Q1.85-.222,1.85-.592V-25.419q0-.629,3.7-.629t3.7.629v9.472l4.514-9.472q.259-.518,2.96-.518,4.921,0,5.18.851a.328.328,0,0,1-.037.148L15.429-13.32,22.9-3a3.246,3.246,0,0,1-.7.629,12.814,12.814,0,0,1-4,2.331A4.043,4.043,0,0,1,16.8.222L15.91.148a2.869,2.869,0,0,1-1.85-1.517L9.842-9.435H9.25Z" transform="translate(37.34 34)"/>
      <path id="Path_304" data-name="Path 304" d="M22.126-.814q0,.777-3.478.777T14.874-.592L8.7-12.136V-.629q0,.666-3.423.666T1.85-.629V-25.382q0-.555,2.923-.555a20.759,20.759,0,0,1,2.683.2q1.535.2,1.868.759l5.92,11.4V-25.2q0-.7,3.441-.7t3.441.7Z" transform="translate(60.607 34)"/>
      <path id="Path_305" data-name="Path 305" d="M13.205.38a11.536,11.536,0,0,1-8.7-3.5q-3.363-3.5-3.363-10.2t3.4-10.165a11.774,11.774,0,0,1,8.778-3.458A11.563,11.563,0,0,1,22-23.541q3.306,3.4,3.306,10.3T21.926-2.983A11.839,11.839,0,0,1,13.205.38Zm.019-20.026a3.687,3.687,0,0,0-3.059,1.672A7.774,7.774,0,0,0,8.93-13.281a7.782,7.782,0,0,0,1.178,4.636,3.659,3.659,0,0,0,3.1,1.615,3.7,3.7,0,0,0,3.116-1.634,7.816,7.816,0,0,0,1.2-4.674,7.635,7.635,0,0,0-1.235-4.674A3.71,3.71,0,0,0,13.224-19.646Z" transform="translate(84.925 35)"/>
      <path id="Path_306" data-name="Path 306" d="M27,.036q-3.2,0-3.2-.72L23.04-15.12,18.648-.5Q18.5-.072,16.2-.072t-2.376-.4l-4.536-14.8L8.784-.9q-.036.54-1.368.738A15.57,15.57,0,0,1,5.2.036a13.213,13.213,0,0,1-1.71-.108Q1.764-.324,1.8-.972l.828-23.4q0-.864,4.392-.864a30.912,30.912,0,0,1,3.168.2q1.872.2,2.088.774l4.032,11.34L19.836-24.3q.324-.936,4.968-.936a30.64,30.64,0,0,1,3.186.2q1.854.2,1.854.7L30.888-.72q0,.4-1.4.576A19.8,19.8,0,0,1,27,.036Z" transform="translate(112.453 34.363)" fill="#fc0"/>
      <path id="Path_307" data-name="Path 307" d="M19.24.074q-3.219,0-3.478-1.036L14.541-5.735H8.658L7.585-1.147Q7.363,0,4.033,0A12.315,12.315,0,0,1,1.406-.2Q.555-.407.555-.518L7.1-25.567q0-.3,5.069-.3t5.069.3l6.4,25.086q0,.259-1.7.407T19.24.074ZM9.583-10.434h3.885L11.8-18.093h-.222Z" transform="translate(146.49 35.363)" fill="#fc0"/>
      <path id="Path_308" data-name="Path 308" d="M9.25-.518q0,.555-3.478.555L3.7-.074Q1.85-.222,1.85-.592V-25.419q0-.629,3.7-.629t3.7.629v9.472l4.514-9.472q.259-.518,2.96-.518,4.921,0,5.18.851a.328.328,0,0,1-.037.148L15.429-13.32,22.9-3a3.246,3.246,0,0,1-.7.629,12.814,12.814,0,0,1-4,2.331A4.043,4.043,0,0,1,16.8.222L15.91.148a2.869,2.869,0,0,1-1.85-1.517L9.842-9.435H9.25Z" transform="translate(171.071 35.363)" fill="#fc0"/>
      <path id="Path_309" data-name="Path 309" d="M13.875-15.614q.7,0,.7,2.59a11.962,11.962,0,0,1-.167,1.832q-.167,1.055-.611,1.054H9.1v3.7H15.91q.629,0,.851,1.628a9.613,9.613,0,0,1,.111,1.5,12.325,12.325,0,0,1-.222,2.054Q16.428,0,15.91,0H3.256Q1.85,0,1.85-1.147V-24.938q0-.962.851-.962H15.947q.777,0,.777,3.274t-.777,3.275H9.1v3.737Z" transform="translate(194.338 35.363)" fill="#fc0"/>
      <path id="Path_310" data-name="Path 310" d="M9.158-.532q0,.608-3.61.608Q1.9.076,1.9-.494V-25.27q0-1.33,1.406-1.33h7.258q9.994,0,9.994,7.79a9.834,9.834,0,0,1-.912,4.275,7.535,7.535,0,0,1-2.584,3.059L21.85-3.5a5.01,5.01,0,0,1-1.976,2.09A7.077,7.077,0,0,1,16.112.228a2.481,2.481,0,0,1-2.2-1.064L10.336-9.158H9.158Zm0-19.342v5.7h.19q3.61,0,3.61-3a2.675,2.675,0,0,0-.7-2.033,3.28,3.28,0,0,0-2.3-.665Z" transform="translate(212.839 36.363)" fill="#fc0"/>
    </g>
    <g id="Group_94" data-name="Group 94" transform="translate(21.942 85.71)">
      <g id="Group_93" data-name="Group 93" clip-path="url(#clip-path)">
        <path id="Path_300" data-name="Path 300" d="M32.425,181.257h94.066V171.4H42.2V134.175L126.491,95.84v-10.2L21.942,133.175v10.2l10.483-4.717Z" transform="translate(-21.942 -85.701)"/>
      </g>
    </g>
    <g id="Group_95" data-name="Group 95" transform="translate(135.447 164.516)">
      <path id="Path_335" data-name="Path 335" d="M.814-7.48H3.751A2.7,2.7,0,0,1,5.516-7a1.917,1.917,0,0,1,.567,1.545A2.11,2.11,0,0,1,5.9-4.51a1.7,1.7,0,0,1-.638.66,1.422,1.422,0,0,1,.732.605,2.11,2.11,0,0,1,.236,1.067A2.044,2.044,0,0,1,5.6-.539,2.69,2.69,0,0,1,3.8,0H.814ZM3.685-4.4q.858,0,.858-.891a.778.778,0,0,0-.869-.891H2.332V-4.4Zm.033,3.1a1.1,1.1,0,0,0,.731-.2.866.866,0,0,0,.237-.688A.955.955,0,0,0,4.455-2.9a1.025,1.025,0,0,0-.737-.226H2.332V-1.3Z" transform="translate(0 14)" fill="#222"/>
      <path id="Path_332" data-name="Path 332" d="M.814-7.48H2.332V0H.814ZM.836-9.922H2.31v1.485H.836Z" transform="translate(7.439 14)" fill="#222"/>
      <path id="Path_333" data-name="Path 333" d="M5.071-1.342V0H.814V-7.48H2.332v6.138Z" transform="translate(10.932 14)" fill="#222"/>
      <path id="Path_334" data-name="Path 334" d="M.814-7.48H2.332V0H.814ZM.836-9.922H2.31v1.485H.836Z" transform="translate(16.697 14)" fill="#222"/>
      <path id="Path_330" data-name="Path 330" d="M5.577-2.255A2.291,2.291,0,0,1,5-.605,2.472,2.472,0,0,1,3.421.11v.3a2,2,0,0,1,1.045.22.893.893,0,0,1,.308.792,1.245,1.245,0,0,1-.313.918,1.229,1.229,0,0,1-.908.313,4.106,4.106,0,0,1-.869-.088L2.53,2.53l.044-.858q.231.011.528.011.418,0,.418-.286,0-.242-.418-.242H2.838V.132A10.787,10.787,0,0,1,.891-.132L.5-.209.649-1.386a18.313,18.313,0,0,0,2.255.2q1.166,0,1.166-.968a.633.633,0,0,0-.308-.583,4.617,4.617,0,0,0-1.034-.4,5.772,5.772,0,0,1-1.37-.539,1.918,1.918,0,0,1-.726-.7A2.066,2.066,0,0,1,.407-5.39a2.042,2.042,0,0,1,.671-1.661,2.85,2.85,0,0,1,1.881-.561,8.249,8.249,0,0,1,.979.061q.506.06,1.485.237L5.3-6.116a21.274,21.274,0,0,0-2.189-.176q-1.2,0-1.2.792a.576.576,0,0,0,.2.451,1.621,1.621,0,0,0,.5.292q.3.116,1,.336a5.244,5.244,0,0,1,1.177.506,1.585,1.585,0,0,1,.605.654A2.338,2.338,0,0,1,5.577-2.255Z" transform="translate(20.19 14)" fill="#222"/>
      <path id="Path_331" data-name="Path 331" d="M.814-7.48H2.332V0H.814ZM.836-9.922H2.31v1.485H.836Z" transform="translate(26.834 14)" fill="#222"/>
      <path id="Path_326" data-name="Path 326" d="M8.624-7.48V0H7.106V-5.786H6.941L5.478-.33H3.96L2.5-5.786H2.332V0H.814V-7.48H3.4l1.32,5.445L6.039-7.48Z" transform="translate(30.328 14)" fill="#222"/>
      <path id="Path_327" data-name="Path 327" d="M.16-6.8H1.61L2.79-1.2h.45L4.42-6.8H5.87L4.29,0H1.74Z" transform="translate(43.495 13)" fill="#222"/>
      <path id="Path_328" data-name="Path 328" d="M2.332-6.16v1.749H4.994v1.3H2.332V-1.32H5.654V0H.814V-7.48h4.84v1.32Z" transform="translate(50.86 14)" fill="#222"/>
      <path id="Path_329" data-name="Path 329" d="M2.332-6.16v1.749H4.994v1.3H2.332V-1.32H5.654V0H.814V-7.48h4.84v1.32Z" transform="translate(60.314 14)" fill="#222"/>
      <path id="Path_317" data-name="Path 317" d="M3.553.132A3.479,3.479,0,0,1,1.733-.275,2.248,2.248,0,0,1,.781-1.529,7.2,7.2,0,0,1,.5-3.773a6.811,6.811,0,0,1,.3-2.217,2.235,2.235,0,0,1,.951-1.232A3.409,3.409,0,0,1,3.5-7.612a11.628,11.628,0,0,1,2.211.231l.4.077L6.061-6.127A19.881,19.881,0,0,0,3.905-6.27a2.16,2.16,0,0,0-1.265.292,1.226,1.226,0,0,0-.489.792A8.777,8.777,0,0,0,2.057-3.7a6.579,6.579,0,0,0,.132,1.507,1.245,1.245,0,0,0,.478.765A1.831,1.831,0,0,0,3.7-1.188a6.4,6.4,0,0,0,.913-.044V-2.684H3.927V-4H6.105V-.121A17.33,17.33,0,0,1,3.553.132ZM3.542-8.349a2.134,2.134,0,0,1-1.436-.44A1.849,1.849,0,0,1,1.5-10.01H2.827a.753.753,0,0,0,.237.451.7.7,0,0,0,.49.176.7.7,0,0,0,.489-.176.7.7,0,0,0,.226-.451H5.6a1.838,1.838,0,0,1-.616,1.221A2.156,2.156,0,0,1,3.542-8.349Z" transform="translate(67.08 14)" fill="#222"/>
      <path id="Path_318" data-name="Path 318" d="M.814-7.48H2.332V0H.814ZM.836-9.922H2.31v1.485H.836Z" transform="translate(74.543 14)" fill="#222"/>
      <path id="Path_319" data-name="Path 319" d="M2.145-6.138h-2V-7.48h5.5v1.342H3.663V0H2.145Z" transform="translate(78.036 14)" fill="#222"/>
      <path id="Path_320" data-name="Path 320" d="M.814-7.48H2.332V0H.814ZM.836-9.922H2.31v1.485H.836Z" transform="translate(84.462 14)" fill="#222"/>
      <path id="Path_321" data-name="Path 321" d="M8.624-7.48V0H7.106V-5.786H6.941L5.478-.33H3.96L2.5-5.786H2.332V0H.814V-7.48H3.4l1.32,5.445L6.039-7.48Z" transform="translate(87.955 14)" fill="#222"/>
      <path id="Path_322" data-name="Path 322" d="M6.633-7.48V0H5.115V-3.1H2.332V0H.814V-7.48H2.332v3.058H5.115V-7.48Z" transform="translate(101.122 14)" fill="#222"/>
      <path id="Path_323" data-name="Path 323" d="M.814-7.48H2.332V0H.814ZM.836-9.922H2.31v1.485H.836Z" transform="translate(109.39 14)" fill="#222"/>
      <path id="Path_324" data-name="Path 324" d="M.451-1.309,3.575-5.962v-.2H.451V-7.48H5.4v1.32L2.277-1.518v.2H5.4V0H.451Z" transform="translate(112.884 14)" fill="#222"/>
      <path id="Path_325" data-name="Path 325" d="M8.624-7.48V0H7.106V-5.786H6.941L5.478-.33H3.96L2.5-5.786H2.332V0H.814V-7.48H3.4l1.32,5.445L6.039-7.48Z" transform="translate(119.382 14)" fill="#222"/>
      <path id="Path_313" data-name="Path 313" d="M2.332-6.16v1.749H4.994v1.3H2.332V-1.32H5.654V0H.814V-7.48h4.84v1.32Z" transform="translate(129.861 14)" fill="#222"/>
      <path id="Path_314" data-name="Path 314" d="M2.145-6.138h-2V-7.48h5.5v1.342H3.663V0H2.145Z" transform="translate(136.628 14)" fill="#222"/>
      <path id="Path_315" data-name="Path 315" d="M5.071-1.342V0H.814V-7.48H2.332v6.138Z" transform="translate(143.053 14)" fill="#222"/>
      <path id="Path_316" data-name="Path 316" d="M2.332-6.16v1.749H4.994v1.3H2.332V-1.32H5.654V0H.814V-7.48h4.84v1.32Z" transform="translate(148.818 14)" fill="#222"/>
      <path id="Path_311" data-name="Path 311" d="M.814-7.48h2.9q2.64,0,2.64,2.464a2.366,2.366,0,0,1-1.1,2.156L6.325,0H4.664L3.8-2.508H2.332V0H.814ZM3.74-3.806a.98.98,0,0,0,.792-.325,1.308,1.308,0,0,0,.275-.874,1.233,1.233,0,0,0-.286-.864,1.032,1.032,0,0,0-.8-.313H2.332v2.376Z" transform="translate(155.584 14)" fill="#222"/>
      <path id="Path_312" data-name="Path 312" d="M.814-7.48H2.332V0H.814ZM.836-9.922H2.31v1.485H.836Z" transform="translate(163.157 14)" fill="#222"/>
    </g>
  </g>
</svg>
