<?xml version="1.0" standalone="no"?>
<!DOCTYPE svg PUBLIC "-//W3C//DTD SVG 20010904//EN"
 "http://www.w3.org/TR/2001/REC-SVG-20010904/DTD/svg10.dtd">
<svg version="1.0" xmlns="http://www.w3.org/2000/svg"
 width="498.000000pt" height="375.000000pt" viewBox="0 0 498.000000 375.000000"
 preserveAspectRatio="xMidYMid meet">

<g transform="translate(0.000000,375.000000) scale(0.100000,-0.100000)"
fill="#000000" stroke="none">
<path d="M2315 2983 c-26 -31 -61 -84 -78 -117 -29 -57 -31 -68 -31 -161 0
-55 4 -135 9 -177 4 -46 4 -78 -1 -78 -5 0 -27 15 -49 32 -22 18 -35 26 -30
18 5 -8 22 -25 37 -38 16 -14 39 -33 51 -43 22 -18 21 -18 -28 -2 -83 27 -157
113 -206 238 -7 18 -13 25 -16 17 -8 -21 62 -153 104 -196 20 -21 60 -51 88
-67 29 -17 42 -29 31 -29 -34 0 -121 51 -175 103 -29 29 -49 43 -43 31 18 -35
101 -104 155 -130 29 -13 75 -27 102 -31 l50 -7 -60 -12 -60 -11 60 -3 60 -2
-52 -16 c-28 -10 -55 -21 -60 -26 -7 -8 16 -5 101 11 46 9 23 -12 -29 -27 -59
-17 -190 -9 -233 14 -19 10 -36 15 -39 12 -4 -3 16 -16 43 -28 70 -33 207 -32
279 0 l50 23 -35 -37 c-35 -37 -29 -37 23 -1 16 10 31 16 35 12 11 -11 -67
-75 -118 -98 -25 -11 -40 -22 -33 -24 18 -6 73 23 127 67 27 22 51 38 54 35 3
-3 -21 -33 -54 -66 -32 -34 -50 -57 -38 -51 28 15 73 59 108 105 16 21 31 36
33 33 14 -14 -45 -108 -100 -160 -34 -32 -53 -54 -42 -48 37 18 136 131 156
177 24 55 34 58 24 8 -10 -54 -50 -128 -98 -180 -26 -28 -34 -42 -21 -35 54
29 128 156 142 244 8 49 9 51 17 24 5 -17 3 -56 -4 -94 -7 -35 -10 -67 -7 -69
7 -7 26 68 41 157 l12 75 17 -37 c15 -35 29 -92 40 -163 3 -16 3 7 1 51 -1 45
-9 92 -16 105 -14 27 -20 109 -8 109 20 0 99 -117 118 -174 18 -55 20 -58 20
-26 1 45 -30 112 -75 167 -20 24 -33 47 -30 50 10 10 92 -81 127 -139 24 -42
29 -47 24 -23 -13 59 -79 132 -175 192 -46 29 -18 29 45 -1 85 -39 150 -124
190 -246 10 -30 20 -49 22 -43 5 15 -22 103 -48 155 -29 57 -78 107 -144 150
-49 31 -56 38 -35 38 34 0 117 -50 162 -97 20 -21 53 -65 72 -97 20 -33 36
-54 36 -46 0 24 -89 157 -122 182 -48 37 -97 60 -153 74 l-50 12 62 1 c34 1
74 -4 89 -9 43 -17 41 -2 -2 16 -21 10 -74 19 -117 22 -94 6 -84 22 13 22 60
0 93 -5 160 -24 16 -4 10 2 -15 16 -35 20 -53 23 -150 22 -102 -1 -108 0 -77
13 18 7 60 16 92 20 33 3 57 9 55 13 -6 10 -88 2 -152 -16 -62 -17 -66 -17
-57 -3 4 8 0 9 -15 4 -58 -18 11 45 97 89 19 10 32 20 29 22 -8 8 -109 -46
-154 -82 -23 -19 -46 -34 -51 -34 -6 0 -13 -6 -15 -12 -4 -10 -6 -10 -6 0 -2
23 25 76 64 127 21 28 30 43 20 35 -33 -26 -63 -63 -87 -107 -26 -49 -41 -56
-32 -15 10 44 54 113 107 170 28 28 44 52 38 52 -36 0 -161 -173 -161 -224 0
-8 -5 -18 -12 -22 -19 -12 -1 85 27 141 13 28 41 71 61 95 l38 45 -43 -40
c-71 -67 -102 -134 -126 -269 l-13 -71 -17 39 c-28 65 -30 135 -7 213 20 64
86 182 111 197 12 8 35 46 27 46 -3 0 -26 -26 -51 -57z m171 -457 c29 -29 34
-41 34 -81 0 -40 -5 -52 -33 -80 -44 -44 -78 -52 -127 -30 -49 22 -71 55 -72
104 -1 76 41 120 116 121 41 0 53 -5 82 -34z"/>
<path d="M2494 2965 c-10 -8 -14 -15 -8 -15 6 0 17 7 24 15 16 19 9 19 -16 0z"/>
<path d="M2359 2933 c-36 -41 -56 -68 -42 -60 13 8 77 87 71 87 -2 0 -15 -12
-29 -27z"/>
<path d="M1972 2890 c0 -14 2 -19 5 -12 2 6 2 18 0 25 -3 6 -5 1 -5 -13z"/>
<path d="M2778 2893 c7 -3 16 -2 19 1 4 3 -2 6 -13 5 -11 0 -14 -3 -6 -6z"/>
<path d="M2101 2854 c0 -11 3 -14 6 -6 3 7 2 16 -1 19 -3 4 -6 -2 -5 -13z"/>
<path d="M2698 2833 c6 -2 18 -2 25 0 6 3 1 5 -13 5 -14 0 -19 -2 -12 -5z"/>
<path d="M2277 2823 c-4 -3 -7 -11 -7 -17 0 -6 5 -5 12 2 6 6 9 14 7 17 -3 3
-9 2 -12 -2z"/>
<path d="M2552 2799 c-46 -23 -152 -114 -152 -131 0 -5 23 11 52 37 29 26 82
62 118 80 38 20 57 34 45 35 -11 0 -39 -10 -63 -21z"/>
<path d="M1962 2775 c0 -16 2 -22 5 -12 2 9 2 23 0 30 -3 6 -5 -1 -5 -18z"/>
<path d="M2082 2745 c0 -16 2 -22 5 -12 2 9 2 23 0 30 -3 6 -5 -1 -5 -18z"/>
<path d="M2678 2763 c7 -3 16 -2 19 1 4 3 -2 6 -13 5 -11 0 -14 -3 -6 -6z"/>
<path d="M2152 2715 c0 -16 2 -22 5 -12 2 9 2 23 0 30 -3 6 -5 -1 -5 -18z"/>
<path d="M2541 2689 c-24 -11 -42 -22 -39 -25 5 -4 107 32 117 42 11 11 -39 0
-78 -17z"/>
<path d="M2778 2703 c7 -3 16 -2 19 1 4 3 -2 6 -13 5 -11 0 -14 -3 -6 -6z"/>
<path d="M2243 2665 c0 -22 2 -30 4 -17 2 12 2 30 0 40 -3 9 -5 -1 -4 -23z"/>
<path d="M2101 2647 c-2 -31 74 -165 86 -153 3 3 -4 18 -15 34 -12 15 -32 53
-46 83 -13 30 -25 46 -25 36z"/>
<path d="M2161 2623 c-1 -18 39 -107 45 -100 3 3 -5 30 -19 59 -14 29 -26 48
-26 41z"/>
<path d="M2886 2587 c61 -45 104 -71 104 -63 0 9 -138 106 -151 106 -7 0 14
-20 47 -43z"/>
<path d="M2905 2500 c10 -11 20 -20 23 -20 3 0 -3 9 -13 20 -10 11 -20 20 -23
20 -3 0 3 -9 13 -20z"/>
<path d="M3015 2470 c10 -11 20 -20 23 -20 3 0 -3 9 -13 20 -10 11 -20 20 -23
20 -3 0 3 -9 13 -20z"/>
<path d="M1940 2374 c17 -19 99 -68 106 -62 4 5 -100 78 -112 78 -4 0 -1 -7 6
-16z"/>
<path d="M2082 2355 c9 -10 21 -16 28 -13 7 2 -1 10 -16 17 -27 12 -28 11 -12
-4z"/>
<path d="M2624 2343 c16 -33 36 -52 36 -34 0 5 -11 23 -26 38 l-25 28 15 -32z"/>
<path d="M2098 2293 c7 -3 16 -2 19 1 4 3 -2 6 -13 5 -11 0 -14 -3 -6 -6z"/>
<path d="M2571 2214 c0 -11 3 -14 6 -6 3 7 2 16 -1 19 -3 4 -6 -2 -5 -13z"/>
<path d="M2113 2183 c9 -2 25 -2 35 0 9 3 1 5 -18 5 -19 0 -27 -2 -17 -5z"/>
<path d="M2479 2073 c-33 -40 -41 -53 -32 -53 11 0 57 60 50 66 -2 2 -10 -4
-18 -13z"/>
<path d="M2178 2073 c7 -3 16 -2 19 1 4 3 -2 6 -13 5 -11 0 -14 -3 -6 -6z"/>
<path d="M2532 2055 c-7 -15 -11 -30 -8 -32 7 -7 28 36 24 49 -2 6 -9 -2 -16
-17z"/>
<path d="M2732 2060 c0 -14 2 -19 5 -12 2 6 2 18 0 25 -3 6 -5 1 -5 -13z"/>
<path d="M2862 2020 c0 -14 2 -19 5 -12 2 6 2 18 0 25 -3 6 -5 1 -5 -13z"/>
<path d="M2459 1943 l-24 -28 28 24 c25 23 32 31 24 31 -2 0 -14 -12 -28 -27z"/>
<path d="M2128 1933 c6 -2 18 -2 25 0 6 3 1 5 -13 5 -14 0 -19 -2 -12 -5z"/>
<path d="M2505 1900 c-10 -11 -13 -20 -8 -20 13 0 38 29 31 35 -3 3 -13 -4
-23 -15z"/>
<path d="M2175 1870 c4 -6 11 -8 16 -5 14 9 11 15 -7 15 -8 0 -12 -5 -9 -10z"/>
<path d="M2534 1828 l-29 -33 33 29 c17 17 32 31 32 33 0 8 -8 1 -36 -29z"/>
<path d="M1190 1320 l0 -210 40 0 39 0 3 93 3 92 75 -92 75 -93 48 0 c57 0 60
-8 -45 122 l-78 97 75 93 c41 51 75 96 75 100 0 4 -18 8 -39 8 -37 0 -43 -5
-106 -82 -37 -46 -71 -84 -76 -86 -5 -2 -9 35 -9 82 l0 86 -40 0 -40 0 0 -210z"/>
<path d="M1631 1412 c-53 -27 -75 -63 -79 -135 -6 -110 51 -172 156 -171 57 1
89 18 126 67 28 38 29 139 1 186 -39 66 -132 90 -204 53z m121 -69 c22 -25 29
-75 17 -117 -25 -91 -139 -64 -139 34 0 42 14 79 34 92 20 14 73 8 88 -9z"/>
<path d="M1964 1414 c-32 -15 -54 -50 -54 -84 0 -35 47 -77 100 -90 58 -14 79
-33 60 -55 -18 -21 -73 -19 -102 5 l-25 19 -23 -24 c-12 -13 -19 -28 -15 -34
25 -41 145 -57 201 -28 57 30 64 111 13 149 -13 10 -47 24 -74 31 -39 9 -51
17 -53 34 -5 31 41 42 81 19 28 -16 31 -16 48 0 28 25 23 43 -16 60 -44 18
-102 18 -141 -2z"/>
<path d="M2326 1409 c-21 -17 -26 -18 -26 -5 0 12 -10 16 -40 16 l-40 0 0
-155 0 -155 40 0 40 0 0 103 c0 117 12 147 59 147 46 0 51 -15 51 -137 l0
-113 40 0 40 0 0 103 c0 117 12 147 59 147 46 0 51 -15 51 -137 l0 -113 41 0
41 0 -4 136 c-3 135 -3 136 -31 160 -38 32 -95 33 -134 0 l-28 -24 -28 24
c-36 31 -94 32 -131 3z"/>
<path d="M2835 1416 c-59 -27 -79 -60 -83 -139 -2 -58 1 -78 17 -104 56 -89
206 -89 262 0 30 48 24 165 -11 203 -47 51 -123 67 -185 40z m119 -78 c9 -13
16 -43 16 -72 0 -84 -63 -125 -117 -74 -18 17 -23 32 -23 73 0 68 19 95 70 95
29 0 43 -6 54 -22z"/>
<path d="M3163 1416 c-36 -17 -53 -43 -53 -83 0 -46 25 -71 88 -89 70 -20 91
-36 72 -58 -17 -22 -72 -20 -102 4 l-25 19 -23 -24 c-25 -26 -21 -39 18 -59
97 -49 212 -9 212 74 0 53 -23 77 -88 96 -31 9 -64 23 -72 31 -13 13 -13 16 4
29 25 18 44 18 81 -2 28 -14 31 -14 48 7 17 22 17 23 -2 42 -26 26 -113 33
-158 13z"/>
<path d="M3390 1413 c1 -5 18 -37 40 -73 l38 -65 -45 -82 -45 -83 41 0 c40 0
42 2 68 55 15 30 31 55 35 55 5 0 20 -25 35 -55 27 -54 28 -55 70 -55 l43 0
-44 81 -44 81 40 74 40 74 -41 0 c-39 0 -42 -2 -66 -50 -14 -27 -27 -50 -30
-50 -3 0 -16 23 -30 50 -24 47 -27 50 -65 50 -22 0 -40 -3 -40 -7z"/>
<path d="M1850 735 c0 -8 7 -15 15 -15 8 0 15 7 15 15 0 8 -7 15 -15 15 -8 0
-15 -7 -15 -15z"/>
<path d="M1690 665 l0 -75 43 0 c62 0 87 21 87 74 0 56 -22 76 -83 76 l-47 0
0 -75z m84 42 c12 -9 17 -23 14 -47 -3 -31 -6 -35 -35 -38 l-33 -3 0 50 c0 43
3 51 18 51 10 0 26 -6 36 -13z"/>
<path d="M1857 703 c-4 -3 -7 -30 -7 -60 0 -40 4 -53 15 -53 12 0 15 13 15 60
0 55 -6 70 -23 53z"/>
<path d="M1920 695 c-17 -21 -8 -48 18 -55 30 -7 24 -26 -7 -22 -15 2 -22 -1
-19 -10 7 -19 69 -16 81 4 13 20 -6 48 -34 48 -11 0 -19 5 -19 10 0 6 11 10
25 10 28 0 34 15 9 24 -25 10 -41 7 -54 -9z"/>
<path d="M2030 690 c-24 -24 -25 -48 -4 -78 17 -25 65 -30 83 -8 16 19 -5 32
-25 15 -22 -18 -49 10 -39 41 6 18 12 21 36 16 21 -4 29 -2 29 8 0 30 -52 34
-80 6z"/>
<path d="M2150 690 c-24 -24 -25 -48 -4 -78 21 -31 69 -30 89 2 40 61 -34 127
-85 76z m65 -31 c5 -14 1 -27 -9 -37 -15 -15 -17 -15 -32 0 -20 20 -10 58 16
58 10 0 22 -10 25 -21z"/>
<path d="M2260 706 c0 -2 10 -29 21 -60 28 -72 51 -75 73 -8 19 58 20 66 7 70
-5 2 -15 -15 -22 -37 -7 -23 -15 -41 -19 -41 -4 0 -12 18 -19 40 -7 23 -18 40
-26 40 -8 0 -15 -2 -15 -4z"/>
<path d="M2410 690 c-40 -40 -16 -100 40 -100 31 0 45 13 35 30 -5 8 -11 8
-20 0 -7 -6 -20 -8 -29 -4 -29 11 -17 24 24 24 44 0 50 11 24 48 -19 27 -48
28 -74 2z m60 -20 c0 -5 -12 -10 -26 -10 -14 0 -23 4 -19 10 3 6 15 10 26 10
10 0 19 -4 19 -10z"/>
<path d="M2527 703 c-4 -3 -7 -30 -7 -60 0 -40 4 -53 15 -53 10 0 15 10 15 33
0 37 8 51 34 61 14 5 16 10 8 18 -8 8 -15 8 -27 -2 -10 -8 -15 -9 -15 -1 0 12
-13 15 -23 4z"/>
<path d="M2670 695 c-17 -21 -8 -48 18 -55 30 -7 24 -26 -7 -22 -15 2 -22 -1
-19 -10 7 -19 69 -16 81 4 13 20 -6 48 -34 48 -11 0 -19 5 -19 10 0 6 11 10
25 10 28 0 34 15 9 24 -25 10 -41 7 -54 -9z"/>
<path d="M2777 703 c-4 -3 -7 -42 -7 -85 0 -63 3 -78 15 -78 10 0 15 10 15 29
0 25 3 28 25 23 34 -6 55 14 55 54 0 50 -39 81 -68 52 -9 -9 -12 -9 -12 0 0
13 -13 16 -23 5z m68 -58 c0 -33 -21 -41 -38 -14 -14 22 -1 51 20 47 13 -2 18
-13 18 -33z"/>
<path d="M2923 703 c-7 -2 -13 -11 -13 -19 0 -10 8 -12 30 -7 41 8 38 -3 -5
-21 -60 -25 -43 -65 28 -64 37 1 47 4 42 15 -3 8 -5 27 -5 43 0 46 -36 70 -77
53z m44 -78 c-4 -8 -13 -15 -22 -15 -21 0 -19 28 3 32 22 5 26 2 19 -17z"/>
<path d="M3047 692 c-20 -22 -22 -73 -5 -90 16 -16 63 -15 77 2 16 19 -4 32
-24 16 -20 -17 -35 -4 -35 32 0 28 2 30 30 25 35 -7 49 8 21 22 -28 16 -46 14
-64 -7z"/>
<path d="M3160 690 c-24 -24 -25 -48 -4 -78 18 -27 65 -30 85 -5 13 15 11 16
-18 10 -21 -4 -35 -2 -43 8 -11 13 -6 15 29 15 34 0 41 3 41 19 0 25 -26 51
-51 51 -10 0 -28 -9 -39 -20z m60 -20 c0 -5 -12 -10 -26 -10 -14 0 -23 4 -19
10 3 6 15 10 26 10 10 0 19 -4 19 -10z"/>
</g>
</svg>
